HIERARCHY
ROOT Hips
{
	OFFSET	0	0	0
	CHANNELS 6  Xposition Yposition Zposition Xrotation Yrotation Zrotation
	JOINT Spine
	{
		OFFSET	0	7.36801	1.47921
		CHANNELS 3  Xrotation Yrotation Zrotation
		JOINT Spine1
		{
			OFFSET	0	12.6146	-2.2526
			CHANNELS 3  Xrotation Yrotation Zrotation
			JOINT Spine2
			{
				OFFSET	0	9.56229	1.02493
				CHANNELS 3  Xrotation Yrotation Zrotation
				JOINT Spine3
				{
					OFFSET	0	11.4432	3.40143
					CHANNELS 3  Xrotation Yrotation Zrotation
					JOINT Spine4
					{
						OFFSET	0	16.9396	-1.7345
						CHANNELS 3  Xrotation Yrotation Zrotation
						JOINT Neck
						{
							OFFSET	0	8.08684	-5.66529
							CHANNELS 3  Xrotation Yrotation Zrotation
							JOINT Head
							{
								OFFSET	0	9.70872	-2.90586
								CHANNELS 3  Xrotation Yrotation Zrotation
								End Site
								{
									OFFSET	0	20.2509	-0.979882
								}
							}
						}
					}
					JOINT LeftShoulder
					{
						OFFSET	-4.86562	20.5888	-9.70871
						CHANNELS 3  Xrotation Yrotation Zrotation
						JOINT LeftArm
						{
							OFFSET	-10.6038	-2.90585	3.72808
							CHANNELS 3  Xrotation Yrotation Zrotation
							JOINT LeftForeArm
							{
								OFFSET	-30.8337	-1.4073	2.20088
								CHANNELS 3  Xrotation Yrotation Zrotation
								JOINT LeftHand
								{
									OFFSET	-25.1332	-1.73684	1.79398
									CHANNELS 3  Xrotation Yrotation Zrotation
									End Site
									{
										OFFSET	-9.17235	-0.633862	0.65467
									}
								}
							}
						}
					}
					JOINT RightShoulder
					{
						OFFSET	4.86562	20.5888	-9.70871
						CHANNELS 3  Xrotation Yrotation Zrotation
						JOINT RightArm
						{
							OFFSET	10.6038	-2.90585	3.72808
							CHANNELS 3  Xrotation Yrotation Zrotation
							JOINT RightForeArm
							{
								OFFSET	30.8337	-1.4073	2.20088
								CHANNELS 3  Xrotation Yrotation Zrotation
								JOINT RightHand
								{
									OFFSET	25.1332	-1.73684	1.79398
									CHANNELS 3  Xrotation Yrotation Zrotation
									End Site
									{
										OFFSET	9.17235	-0.633862	0.65467
									}
								}
							}
						}
					}
				}
			}
		}
	}
	JOINT LeftUpLeg
	{
		OFFSET	-10.0134	-3.684	-0.739604
		CHANNELS 3  Xrotation Yrotation Zrotation
		JOINT LeftLeg
		{
			OFFSET	-2.30148	-45.0967	-0.70496
			CHANNELS 3  Xrotation Yrotation Zrotation
			JOINT LeftFoot
			{
				OFFSET	-2.24997	-41.4741	3.56677
				CHANNELS 3  Xrotation Yrotation Zrotation
				JOINT LeftToeBase
				{
					OFFSET	0	-5.07523	-13.4798
					CHANNELS 3  Xrotation Yrotation Zrotation
					End Site
					{
						OFFSET	0	-2.03009	-8.12037
					}
				}
			}
		}
	}
	JOINT RightUpLeg
	{
		OFFSET	10.0134	-3.684	-0.739604
		CHANNELS 3  Xrotation Yrotation Zrotation
		JOINT RightLeg
		{
			OFFSET	2.30148	-45.0967	-0.70496
			CHANNELS 3  Xrotation Yrotation Zrotation
			JOINT RightFoot
			{
				OFFSET	2.24997	-41.4741	3.56677
				CHANNELS 3  Xrotation Yrotation Zrotation
				JOINT RightToeBase
				{
					OFFSET	0	-5.07523	-13.4798
					CHANNELS 3  Xrotation Yrotation Zrotation
					End Site
					{
						OFFSET	0	-2.03009	-8.12037
					}
				}
			}
		}
	}
}
MOTION
Frames: 17
Frame Time: 0.020408
 0 -12.0709 2.70641 -0 0 -0 -0 0 -0 -0 0 -0 -0 0 -0 -0 0 -0 -0 0 -0 -0 0 -0 -0 0 -0 -0 0 -0 -0 0 -0 -0 0 -0 -0 0 -0 -0 0 -0 -0 0 -0 -0 0 -0 -0 0 -0 -0 0 -0 -0 0 -0 -0 0 -0 -0 0 -0 -0 0 -0 -0 0 -0 -0 0 -0 -0 0 -0
 -243.355 96.6619 271.911 25.4553 -6.60522 10.0562 0.000635765 0.00905581 -4.01588 157.319 179.982 173.307 155.884 179.946 173.307 160.561 179.991 175.984 2.51176 -0.0586751 -1.33734 28.449 -16.6518 -5.74074 8.68009 -7.27483 -3.26073 179.611 -151.365 179.156 89.3162 -142.043 -169.991 5.97311 -48.2998 2.93416 -0 -14.3951 39.6855 1.5517 28.7334 -3.37092 111.138 85.4904 -112.061 45.2822 61.617 -39.7861 -0 1.63727 -9.0401 174.175 -138.892 -164.72 153.427 -167.891 179.835 40.02 -0.0320388 8.77486 0.641223 0 0 148.44 -135.131 176.715 179.707 -166.5 179.944 175.919 179.961 179.566 0.328294 0 0
 -243.581 96.646 271.853 25.4241 -6.68276 9.97792 0.00119647 0.0169332 -4.0417 157.347 179.966 173.264 155.915 179.899 173.264 160.577 179.983 175.958 2.52639 -0.0593963 -1.34592 28.4056 -16.5238 -5.94659 8.67625 -6.79976 -3.33032 179.469 -151.335 178.847 89.2411 -142.238 -170.737 6.41712 -49.3657 3.33489 -0 -14.8412 41.0408 1.54841 28.7641 -3.36371 108.021 85.5878 -108.954 46.3513 61.7513 -40.8974 -0 1.7324 -9.19346 174.259 -138.12 -164.497 153.228 -168.643 179.873 40.1713 -0.0312487 8.88158 0.660518 0 0 148.892 -135.283 177.243 179.553 -166.471 179.896 175.763 179.973 179.523 0.327159 0 0
 -243.778 96.6193 271.726 25.3734 -6.74251 9.94761 0.000815608 0.0114267 -4.08269 157.387 179.977 173.196 155.953 179.932 173.196 160.607 179.989 175.917 2.53133 -0.0601162 -1.35957 28.3144 -16.3705 -6.18235 8.65971 -6.27343 -3.40662 179.725 -151.415 179.404 89.5327 -141.761 -171.638 7.07558 -50.9633 3.87306 -0 -15.3562 42.3981 1.52567 28.7625 -3.31427 107.816 85.6119 -108.696 47.3311 61.8268 -41.9165 -0 1.81012 -9.32336 174.531 -137.497 -164.059 153.163 -169.365 179.93 40.1493 -0.0282606 8.96863 0.67839 0 0 149.2 -135.022 177.727 179.499 -166.451 179.795 175.548 179.968 179.491 0.326139 0 0
 -244.031 96.5869 271.644 25.3632 -6.8109 9.90438 0.000501218 0.00696526 -4.11589 157.417 179.986 173.14 155.984 179.958 173.14 160.636 179.993 175.884 2.52207 -0.0603838 -1.37064 28.1939 -16.2082 -6.415 8.63463 -5.76052 -3.47891 179.752 -151.358 179.462 89.5401 -141.197 -172.453 7.87668 -52.8449 4.59466 -0 -15.8848 43.7675 1.51278 28.7861 -3.28622 105.251 85.7962 -106.17 48.0489 61.7403 -42.6224 -0 1.80933 -9.47746 174.863 -136.84 -163.444 153.187 -170.091 179.915 40.0795 -0.0159374 9.035 0.69828 0 0 149.592 -135.023 178.244 179.408 -166.407 179.839 175.299 179.994 179.477 0.325107 0 0
 -244.117 96.5176 271.453 25.3104 -6.88654 9.98687 0.00046944 0.00647754 -4.14509 157.459 179.987 173.092 156.025 179.961 173.092 160.661 179.994 175.855 2.54356 -0.0613299 -1.38033 28.1634 -16.1008 -6.59792 8.63491 -5.34053 -3.54156 179.58 -151.294 179.089 89.4563 -140.758 -173.255 8.87558 -54.8895 5.57826 -0 -16.434 45.0965 1.54135 28.7738 -3.34836 104.594 85.9889 -105.526 48.3954 61.5048 -42.8454 -0 1.77863 -9.63523 175.445 -136.286 -162.712 153.097 -170.681 179.944 39.9774 -0.0131967 9.12909 0.718128 0 0 149.844 -134.951 178.672 179.386 -166.341 179.834 175.077 -179.983 179.325 0.324241 0 0
 -244.3 96.4799 271.338 25.2941 -7.03672 10.0919 0.00031845 0.00435486 -4.18233 157.492 179.991 173.029 156.057 179.974 173.029 160.683 179.996 175.818 2.55734 -0.0622162 -1.39272 28.1334 -16.0287 -6.73066 8.63292 -5.04658 -3.58678 179.318 -151.32 178.519 89.448 -140.417 -174.055 10.1479 -57.1111 6.85383 -0 -16.9947 46.3951 1.55676 28.7363 -3.3819 106.091 86.5222 -107.014 48.6256 61.2189 -42.959 -0 1.6533 -9.8733 175.892 -135.662 -162.194 153.091 -171.168 179.851 39.9949 -0.00891292 9.25185 0.739403 0 0 150.009 -134.975 178.972 179.334 -165.935 179.841 174.794 -179.985 179.193 0.323495 0 0
 -244.387 96.4269 271.173 25.2809 -7.20648 10.1769 0.000268764 0.00365911 -4.20086 157.522 179.993 172.999 156.087 179.978 172.999 160.703 179.996 175.799 2.56447 -0.0626663 -1.39888 28.1129 -15.9848 -6.77612 8.62916 -4.93169 -3.60037 179.024 -151.355 177.879 89.549 -140.16 -174.75 11.7043 -59.437 8.40064 -0 -17.5507 47.6171 1.56267 28.7326 -3.39477 110.094 86.8782 -110.932 48.5541 60.8389 -42.7312 -0 1.4823 -10.0729 176.535 -135.037 -161.567 152.972 -171.632 179.827 39.9662 -0.0178434 9.39053 0.758826 0 0 150.18 -135 179.28 179.349 -165.608 179.845 174.654 179.99 179.073 0.322833 0 0
 -244.413 96.3948 270.885 25.1566 -7.33703 10.2652 0.000283447 0.00382092 -4.24259 157.551 179.992 172.929 156.114 179.977 172.929 160.716 179.996 175.757 2.59077 -0.0639377 -1.41275 28.1457 -15.9975 -6.8253 8.64199 -4.83814 -3.6228 178.747 -151.342 177.279 89.6456 -139.837 -175.72 13.6399 -61.9321 10.3617 -0 -18.0988 48.8421 1.55645 28.7219 -3.38124 114.645 87.162 -115.48 48.9385 60.6291 -43.1086 -0 1.33138 -10.2745 176.849 -134.133 -160.962 152.876 -172.129 179.843 40.0963 -0.00715824 9.49794 0.776386 0 0 150.17 -135.052 179.35 179.357 -164.884 179.75 174.598 179.96 178.939 0.322252 0 0
 -244.331 96.3624 270.707 25.0994 -7.45231 10.4467 0.000264489 0.00353714 -4.27633 157.575 179.993 172.873 156.135 179.979 172.873 160.724 179.996 175.724 2.61742 -0.0651087 -1.42395 28.1911 -15.9974 -6.84737 8.65715 -4.77186 -3.63488 178.565 -151.386 176.882 89.8179 -139.683 -177.04 15.7243 -64.2597 12.4973 -0 -18.5737 49.9105 1.55518 28.7413 -3.37846 118.975 87.2451 -119.847 49.3551 60.4532 -43.4935 -0 1.19613 -10.4284 177.266 -133.393 -160.43 152.737 -172.482 179.879 40.0511 -0.00518417 9.5895 0.79159 0 0 150.048 -135.063 179.228 179.214 -164.159 179.693 174.652 179.924 178.859 0.321717 0 0
 -244.245 96.3079 270.642 25.108 -7.47838 10.6335 0.000458881 0.00609787 -4.30355 157.624 179.988 172.827 156.19 179.964 172.827 160.771 179.994 175.696 2.60002 -0.0650879 -1.43304 28.096 -16.0246 -6.86479 8.62902 -4.82584 -3.63601 178.257 -151.434 176.213 89.8835 -139.629 -178.03 18.0202 -66.4445 14.8238 -0 -18.9795 50.8329 1.54567 28.6993 -3.35785 120.574 87.1422 -121.411 50.1858 60.4174 -44.3512 -0 1.08631 -10.5457 178.095 -132.735 -159.98 152.529 -172.702 179.923 39.9331 -0.0618525 9.75847 0.80707 0 0 149.884 -135.038 179.029 179.018 -163.498 179.674 174.822 179.938 178.802 0.32158 0 0
 -244.054 96.2826 270.564 24.9567 -7.56277 10.7073 0.00051336 0.00677372 -4.334 157.696 179.987 172.777 156.262 179.96 172.777 160.818 179.993 175.666 2.62485 -0.0661743 -1.44315 28.1049 -16.029 -6.84168 8.63045 -4.86631 -3.62794 177.946 -151.368 175.537 89.9031 -139.556 -178.908 20.9269 -68.6705 17.7928 -0 -19.3665 51.655 1.5194 28.7503 -3.30065 118.1 87.0517 -118.79 51.1155 60.4338 -45.3379 -0 1.02757 -10.6887 178.262 -132.127 -160.082 151.989 -173.076 179.991 40.0588 -0.0200982 9.93917 0.82105 0 0 150.198 -135.087 179.109 178.731 -163.029 179.707 174.963 179.934 178.694 0.321303 0 0
 -244.044 96.2538 270.475 24.763 -7.63222 10.6637 0.000810385 0.0106849 -4.33721 157.769 179.979 172.771 156.339 179.936 172.771 160.873 179.989 175.663 2.63201 -0.0664039 -1.44421 28.0544 -16.0415 -6.86083 8.61606 -4.87539 -3.63229 177.798 -151.439 175.213 89.8527 -139.48 -179.942 23.6884 -70.4536 20.6997 -0 -19.656 52.385 1.51377 28.7594 -3.2884 114.242 86.9484 -114.961 51.7115 60.3471 -45.9511 -0 0.962431 -10.8278 178.012 -131.542 -160.194 151.382 -173.327 179.999 40.1946 -0.0617905 10.1413 0.833959 0 0 150.491 -135.081 179.334 178.595 -162.649 179.714 174.9 179.966 178.576 0.320691 0 0
 -244.043 96.2173 270.393 24.5633 -7.56928 10.5824 0.000701091 0.00923653 -4.34067 157.832 179.982 172.766 156.4 179.945 172.766 160.909 179.991 175.659 2.67055 -0.0674291 -1.44532 28.0925 -16.0515 -6.89601 8.62975 -4.80071 -3.64951 177.384 -151.41 174.312 89.7988 -140.112 178.651 26.1127 -71.8614 23.2541 -0 -19.8896 53.1299 1.50177 28.6979 -3.2624 111.921 86.5856 -112.602 52.3938 60.2759 -46.626 -0 0.914419 -10.9051 178.212 -131.191 -160.021 151.169 -173.604 179.948 40.1803 -0.0419153 10.3542 0.848467 0 0 150.808 -134.968 179.542 178.407 -162.332 179.724 174.948 179.977 178.448 0.320363 0 0
 -244.014 96.1805 270.354 24.4631 -7.50495 10.5614 0.000385238 0.00507097 -4.34438 157.888 179.99 172.759 156.453 179.97 172.759 160.944 179.995 175.656 2.69478 -0.0680987 -1.44653 28.0951 -16.033 -6.93896 8.63299 -4.70327 -3.66537 176.958 -151.427 173.383 89.7868 -140.899 177.326 28.464 -73.0529 25.6965 -0 -20.0857 53.8092 1.52503 28.6909 -3.31297 110.913 86.3223 -111.726 53.2178 60.2508 -47.4473 -0 0.86128 -11.0107 178.451 -130.957 -159.785 151.086 -173.947 179.917 39.8482 -0.0137793 10.5309 0.860278 0 0 151.062 -134.978 179.71 178.274 -162.08 179.741 174.948 179.981 178.34 0.319943 0 0
 -243.893 96.1644 270.103 24.1891 -7.5427 10.5573 0.000493189 0.0064731 -4.35698 157.963 179.987 172.738 156.529 179.961 172.738 160.994 179.994 175.643 2.72011 -0.0689377 -1.45069 28.0825 -15.9998 -6.9887 8.63198 -4.5875 -3.68186 176.568 -151.394 172.531 89.9187 -141.678 175.916 31.2541 -74.1998 28.5319 -0 -20.2736 54.3698 1.51359 28.7201 -3.28807 108.754 86.3215 -109.692 54.1074 60.2427 -48.3857 -0 0.82948 -11.1868 178.621 -130.889 -159.672 151.013 -174.29 179.864 39.4325 -0.0145676 10.6704 0.86945 0 0 151.246 -134.949 179.786 178.186 -161.868 179.746 174.855 179.976 178.24 0.319534 0 0
 -243.722 96.1417 270.083 24.042 -7.56033 10.547 0.000563093 0.00737392 -4.36679 158.017 179.985 172.722 156.583 179.956 172.722 161.033 179.993 175.633 2.72915 -0.0693224 -1.45394 28.0444 -15.9159 -7.03546 8.62296 -4.43885 -3.69222 176.201 -151.481 171.728 89.8244 -142.405 174.255 34.2672 -75.2952 31.6686 -0 -20.4326 54.9301 1.50692 28.7381 -3.27354 106.188 86.376 -107.009 54.63 60.1041 -48.8676 -0 0.793026 -11.3952 178.732 -130.874 -159.715 150.881 -174.567 179.897 39.1518 -0.0282502 10.8745 0.878008 0 0 151.36 -134.99 179.809 178.066 -161.648 179.792 174.912 -179.994 178.147 0.31923 0 0
